<svg width="111" height="111" viewBox="0 0 111 111" fill="none" xmlns="http://www.w3.org/2000/svg">
<path d="M94.7444 94.7444C102.506 86.9826 107.792 77.0935 109.934 66.3275C112.075 55.5616 110.976 44.4024 106.775 34.2611C102.575 24.1198 95.4611 15.4519 86.3342 9.35344C77.2072 3.25502 66.4769 5.01594e-07 55.5 0C44.5231 -5.01594e-07 33.7928 3.25502 24.6659 9.35343C15.5389 15.4519 8.42535 24.1198 4.22469 34.2611C0.024023 44.4024 -1.07506 55.5616 1.06642 66.3275C3.2079 77.0935 8.49376 86.9826 16.2556 94.7444L43.7078 67.2922C41.3756 64.9599 39.7873 61.9884 39.1438 58.7535C38.5003 55.5185 38.8306 52.1654 40.0928 49.1181C41.355 46.0709 43.4925 43.4663 46.235 41.6339C48.9774 39.8014 52.2017 38.8233 55.5 38.8233C58.7983 38.8233 62.0226 39.8014 64.7651 41.6339C67.5075 43.4663 69.645 46.0709 70.9072 49.1181C72.1694 52.1654 72.4997 55.5185 71.8562 58.7535C71.2127 61.9884 69.6244 64.9599 67.2922 67.2922L94.7444 94.7444Z" fill="#C6FDFA"/>
<path d="M94.7444 94.7444C102.506 86.9826 107.792 77.0935 109.934 66.3275C112.075 55.5616 110.976 44.4024 106.775 34.2611C102.575 24.1198 95.4611 15.4519 86.3342 9.35344C77.2072 3.25502 66.4769 5.01594e-07 55.5 0C44.5231 -5.01594e-07 33.7928 3.25502 24.6659 9.35343C15.5389 15.4519 8.42535 24.1198 4.22469 34.2611C0.024023 44.4024 -1.07506 55.5616 1.06642 66.3275C3.2079 77.0935 8.49376 86.9826 16.2556 94.7444L43.7078 67.2922C41.3756 64.9599 39.7873 61.9884 39.1438 58.7535C38.5003 55.5185 38.8306 52.1654 40.0928 49.1181C41.355 46.0709 43.4925 43.4663 46.235 41.6339C48.9774 39.8014 52.2017 38.8233 55.5 38.8233C58.7983 38.8233 62.0226 39.8014 64.7651 41.6339C67.5075 43.4663 69.645 46.0709 70.9072 49.1181C72.1694 52.1654 72.4997 55.5185 71.8562 58.7535C71.2127 61.9884 69.6244 64.9599 67.2922 67.2922L94.7444 94.7444Z" fill="#C6FDFA"/>
<path d="M94.7444 94.7444C102.506 86.9826 107.792 77.0935 109.934 66.3275C112.075 55.5616 110.976 44.4024 106.775 34.2611C102.575 24.1198 95.4611 15.4519 86.3342 9.35344C77.2072 3.25502 66.4769 5.01594e-07 55.5 0C44.5231 -5.01594e-07 33.7928 3.25502 24.6659 9.35343C15.5389 15.4519 8.42535 24.1198 4.22469 34.2611C0.024023 44.4024 -1.07506 55.5616 1.06642 66.3275C3.2079 77.0935 8.49376 86.9826 16.2556 94.7444L43.7078 67.2922C41.3756 64.9599 39.7873 61.9884 39.1438 58.7535C38.5003 55.5185 38.8306 52.1654 40.0928 49.1181C41.355 46.0709 43.4925 43.4663 46.235 41.6339C48.9774 39.8014 52.2017 38.8233 55.5 38.8233C58.7983 38.8233 62.0226 39.8014 64.7651 41.6339C67.5075 43.4663 69.645 46.0709 70.9072 49.1181C72.1694 52.1654 72.4997 55.5185 71.8562 58.7535C71.2127 61.9884 69.6244 64.9599 67.2922 67.2922L94.7444 94.7444Z" fill="#C6FDFA"/>
<path d="M94.7444 94.7444C102.506 86.9826 107.792 77.0935 109.934 66.3275C112.075 55.5616 110.976 44.4024 106.775 34.2611C102.575 24.1198 95.4611 15.4519 86.3342 9.35344C77.2072 3.25502 66.4769 5.01594e-07 55.5 0C44.5231 -5.01594e-07 33.7928 3.25502 24.6659 9.35343C15.5389 15.4519 8.42535 24.1198 4.22469 34.2611C0.024023 44.4024 -1.07506 55.5616 1.06642 66.3275C3.2079 77.0935 8.49376 86.9826 16.2556 94.7444L43.7078 67.2922C41.3756 64.9599 39.7873 61.9884 39.1438 58.7535C38.5003 55.5185 38.8306 52.1654 40.0928 49.1181C41.355 46.0709 43.4925 43.4663 46.235 41.6339C48.9774 39.8014 52.2017 38.8233 55.5 38.8233C58.7983 38.8233 62.0226 39.8014 64.7651 41.6339C67.5075 43.4663 69.645 46.0709 70.9072 49.1181C72.1694 52.1654 72.4997 55.5185 71.8562 58.7535C71.2127 61.9884 69.6244 64.9599 67.2922 67.2922L94.7444 94.7444Z" fill="#C6FDFA"/>
<circle cx="55.5" cy="55.5" r="12.5" fill="#F29540"/>
</svg>
